<svg width="391" height="85" viewBox="0 0 391 85" fill="none" xmlns="http://www.w3.org/2000/svg">
<path d="M23.36 65.896C19.2213 65.896 15.552 64.9573 12.352 63.08C9.19467 61.2027 6.74133 58.536 4.992 55.08C3.24267 51.5813 2.368 47.528 2.368 42.92C2.368 38.2693 3.24267 34.216 4.992 30.76C6.784 27.2613 9.25867 24.5947 12.416 22.76C15.5733 20.8827 19.2213 19.944 23.36 19.944C31.424 19.944 37.0987 22.9307 40.384 28.904L32.768 34.92C31.8293 33.1707 30.528 31.784 28.864 30.76C27.2427 29.736 25.408 29.224 23.36 29.224C20.2453 29.224 17.6853 30.4187 15.68 32.808C13.6747 35.1547 12.672 38.5253 12.672 42.92C12.672 47.3573 13.6747 50.7493 15.68 53.096C17.6853 55.4427 20.2453 56.616 23.36 56.616C25.3227 56.616 27.136 56.104 28.8 55.08C30.5067 54.056 31.8293 52.6693 32.768 50.92L40.384 56.936C38.7627 59.8373 36.5013 62.056 33.6 63.592C30.6987 65.128 27.2853 65.896 23.36 65.896ZM59.9155 65.896C57.1422 65.896 54.5822 65.32 52.2355 64.168C49.8888 62.9733 48.0115 61.1813 46.6035 58.792C45.1955 56.4027 44.4915 53.4587 44.4915 49.96C44.4915 46.4613 45.1955 43.5173 46.6035 41.128C48.0115 38.7387 49.8888 36.968 52.2355 35.816C54.5822 34.6213 57.1422 34.024 59.9155 34.024C62.6888 34.024 65.2488 34.6213 67.5955 35.816C69.9422 36.968 71.8195 38.7387 73.2275 41.128C74.6355 43.5173 75.3395 46.4613 75.3395 49.96C75.3395 53.4587 74.6355 56.4027 73.2275 58.792C71.8195 61.1813 69.9422 62.9733 67.5955 64.168C65.2488 65.32 62.6888 65.896 59.9155 65.896ZM59.9155 57.576C61.7502 57.576 63.1582 56.936 64.1395 55.656C65.1208 54.376 65.6115 52.4773 65.6115 49.96C65.6115 47.4 65.1208 45.5013 64.1395 44.264C63.1582 42.984 61.7502 42.344 59.9155 42.344C58.0808 42.344 56.6728 42.984 55.6915 44.264C54.7102 45.5013 54.2195 47.4 54.2195 49.96C54.2195 52.4773 54.7102 54.376 55.6915 55.656C56.6728 56.936 58.0808 57.576 59.9155 57.576ZM81.401 65V34.92H90.489L91.129 39.08C91.9397 37.5867 93.049 36.3707 94.457 35.432C95.9077 34.4933 97.6997 34.024 99.833 34.024C103.076 34.024 105.486 34.984 107.065 36.904C108.644 38.824 109.433 41.3627 109.433 44.52V65H99.705V46.248C99.705 45.0533 99.385 44.1147 98.745 43.432C98.105 42.7067 97.2517 42.344 96.185 42.344C95.0757 42.344 94.073 42.6427 93.177 43.24C92.281 43.8373 91.5983 44.5627 91.129 45.416V65H81.401ZM133.708 65H122.06L112.204 34.92H122.636L127.884 54.568L133.068 34.92H143.564L133.708 65ZM161.435 65.896C156.656 65.896 152.752 64.5733 149.723 61.928C146.694 59.24 145.179 55.272 145.179 50.024C145.179 46.3547 145.904 43.3253 147.355 40.936C148.848 38.5467 150.747 36.7973 153.051 35.688C155.355 34.5787 157.808 34.024 160.411 34.024C165.446 34.024 169.136 35.4747 171.483 38.376C173.83 41.2773 175.003 45.0107 175.003 49.576C175.003 50.5573 174.939 51.6027 174.811 52.712H154.715C155.142 54.4613 155.952 55.8267 157.147 56.808C158.384 57.7467 159.963 58.216 161.883 58.216C163.291 58.216 164.528 57.9813 165.595 57.512C166.662 57.0427 167.728 56.3387 168.795 55.4L173.531 61.864C170.288 64.552 166.256 65.896 161.435 65.896ZM166.427 46.184C165.915 42.984 163.952 41.384 160.539 41.384C159.003 41.384 157.744 41.8107 156.763 42.664C155.782 43.5173 155.099 44.6907 154.715 46.184H166.427ZM180.964 65V34.92H189.924L190.628 39.016C191.438 37.3947 192.484 36.1573 193.764 35.304C195.044 34.4507 196.665 34.024 198.628 34.024C199.012 34.024 199.46 34.0667 199.972 34.152C200.484 34.1947 200.846 34.28 201.06 34.408V43.688C199.737 43.176 198.286 42.92 196.708 42.92C195.428 42.92 194.233 43.304 193.124 44.072C192.014 44.84 191.182 45.9707 190.628 47.464V65H180.964ZM220.208 65.896C216.539 65.896 213.83 65 212.081 63.208C210.374 61.3733 209.521 58.5147 209.521 54.632V43.176H204.593V34.92H209.521V27.304L219.312 24.552V34.92H226.161V43.176H219.312V53.608C219.312 54.9307 219.569 55.9333 220.081 56.616C220.635 57.256 221.531 57.576 222.769 57.576C224.006 57.576 225.137 57.1707 226.161 56.36V64.424C224.753 65.4053 222.769 65.896 220.208 65.896Z" fill="#F5F2FF"/>
<path d="M252.837 65H242.533V30.12H229.924V20.84H265.444V30.12H252.837V65ZM271.339 65V18.28H281.067V38.952C282.859 35.6667 285.781 34.024 289.835 34.024C293.12 34.024 295.637 35.048 297.387 37.096C299.136 39.1013 300.011 41.7467 300.011 45.032V65H290.283V46.632C290.283 45.2667 289.92 44.2213 289.195 43.496C288.512 42.728 287.509 42.344 286.187 42.344C285.035 42.344 284.011 42.664 283.115 43.304C282.219 43.9013 281.536 44.6693 281.067 45.608V65H271.339ZM312.39 30.632C310.598 30.632 309.19 30.12 308.166 29.096C307.142 28.072 306.63 26.6853 306.63 24.936C306.63 23.1867 307.142 21.8 308.166 20.776C309.19 19.7093 310.598 19.176 312.39 19.176C314.182 19.176 315.569 19.688 316.55 20.712C317.574 21.736 318.086 23.144 318.086 24.936C318.086 26.6853 317.574 28.072 316.55 29.096C315.569 30.12 314.182 30.632 312.39 30.632ZM317.254 65H307.526V34.92H317.254V65ZM324.714 65V34.92H333.802L334.442 39.08C335.252 37.5867 336.362 36.3707 337.77 35.432C339.22 34.4933 341.012 34.024 343.146 34.024C346.388 34.024 348.799 34.984 350.378 36.904C351.956 38.824 352.746 41.3627 352.746 44.52V65H343.018V46.248C343.018 45.0533 342.698 44.1147 342.058 43.432C341.418 42.7067 340.564 42.344 339.498 42.344C338.388 42.344 337.386 42.6427 336.49 43.24C335.594 43.8373 334.911 44.5627 334.442 45.416V65H324.714ZM372.691 78.056C368.083 78.056 364.435 77.352 361.747 75.944C359.101 74.5787 357.779 72.424 357.779 69.48C357.779 68.1573 358.099 66.984 358.739 65.96C359.379 64.9787 360.211 64.1893 361.235 63.592C359.827 62.312 359.123 60.712 359.123 58.792C359.123 57.2133 359.485 55.912 360.211 54.888C360.936 53.864 362.067 53.032 363.603 52.392C361.384 50.4293 360.275 47.8693 360.275 44.712C360.275 41.5973 361.363 39.0373 363.539 37.032C365.757 35.0267 368.829 34.024 372.755 34.024C374.504 34.024 376.147 34.2587 377.683 34.728L383.059 28.904L388.179 34.728L383.315 38.504C384.595 40.2107 385.235 42.28 385.235 44.712C385.235 47.8267 384.147 50.3867 381.971 52.392C379.795 54.3973 376.723 55.4 372.755 55.4C371.091 55.4 369.597 55.208 368.275 54.824C367.549 55.208 367.187 55.6987 367.187 56.296C367.187 57.3627 368.445 57.896 370.963 57.896H377.747C380.691 57.896 383.123 58.7067 385.043 60.328C387.005 61.9067 387.987 64.168 387.987 67.112C387.987 70.7813 386.664 73.512 384.019 75.304C381.373 77.1387 377.597 78.056 372.691 78.056ZM372.755 48.936C373.907 48.936 374.824 48.552 375.507 47.784C376.232 47.016 376.595 45.992 376.595 44.712C376.595 43.432 376.232 42.408 375.507 41.64C374.824 40.872 373.907 40.488 372.755 40.488C371.603 40.488 370.664 40.872 369.939 41.64C369.256 42.3653 368.915 43.3893 368.915 44.712C368.915 45.992 369.256 47.016 369.939 47.784C370.664 48.552 371.603 48.936 372.755 48.936ZM372.691 71.528C377.427 71.528 379.795 70.504 379.795 68.456C379.795 67.688 379.517 67.0907 378.963 66.664C378.451 66.28 377.747 66.088 376.851 66.088H369.491C368.424 66.088 367.443 66.024 366.547 65.896C366.077 66.3653 365.843 66.984 365.843 67.752C365.843 70.2693 368.125 71.528 372.691 71.528Z" fill="#B098E9"/>
</svg>
